<svg fill="none" color="#fca6a6" width="72" height="24" viewBox="0 0 72 24" xmlns="http://www.w3.org/2000/svg">
  <g stroke="currentColor" stroke-linecap="round" stroke-linejoin="round">
    <g transform="matrix(-0.5,-0.866025,0.866025,-0.5,8.61016,28.5468)">
      <path d="M5.68,4.257C7.404,2.846 9.606,2 12.005,2C14.42,2 16.636,2.858 18.364,4.285" stroke-width="1"/>
    </g>
    <g transform="matrix(-0.5,0.866025,-0.866025,-0.5,29.3945,7.7098)">
      <path d="M5.68,4.257C7.404,2.846 9.606,2 12.005,2C14.42,2 16.636,2.858 18.364,4.285" stroke-width="1"/>
    </g>
    <g transform="matrix(1,0,0,1,0.999809,0)">
      <path d="M5.68,4.257C7.404,2.846 9.606,2 12.005,2C14.42,2 16.636,2.858 18.364,4.285" stroke-width="1"/>
    </g>
    <g transform="matrix(1,0,0,1,0.999809,0)">
      <circle cx="11.889" cy="12" r="3.889"  stroke-width="1.5"/>
    </g>
    <g transform="matrix(0.260121,0,0,0.260121,9.90727,18.8786)">
      <circle cx="11.889" cy="12" r="3.889" fill="currentColor"/>
    </g>
    <g transform="matrix(0.26012,0.000419691,-0.000419691,0.26012,1.31234,3.88411)">
      <circle cx="11.889" cy="12" r="3.889" fill="currentColor"/>
    </g>
    <g transform="matrix(0.260121,0.000206246,-0.000206246,0.260121,18.5097,3.86451)">
      <circle cx="11.889" cy="12" r="3.889" fill="currentColor"/>
    </g>
  </g>
  <g transform="matrix(1.44784,0,0,1.44784,-19.9659,0.203182)">
    <path d="M37.13,5.028C37.306,5.028 37.45,5.086 37.562,5.202C37.674,5.318 37.73,5.464 37.73,5.64L37.73,10.8C37.73,11.504 37.596,12.076 37.328,12.516C37.06,12.956 36.7,13.278 36.248,13.482C35.796,13.686 35.286,13.788 34.718,13.788C34.43,13.788 34.142,13.762 33.854,13.71C33.566,13.658 33.33,13.584 33.146,13.488C32.954,13.4 32.818,13.292 32.738,13.164C32.658,13.036 32.646,12.896 32.702,12.744C32.758,12.552 32.854,12.422 32.99,12.354C33.126,12.286 33.266,12.28 33.41,12.336C33.546,12.392 33.726,12.464 33.95,12.552C34.174,12.64 34.43,12.684 34.718,12.684C35.11,12.684 35.442,12.62 35.714,12.492C35.986,12.364 36.192,12.164 36.332,11.892C36.472,11.62 36.542,11.268 36.542,10.836L36.542,10.008L36.734,10.296C36.606,10.56 36.438,10.78 36.23,10.956C36.022,11.132 35.776,11.268 35.492,11.364C35.208,11.46 34.894,11.508 34.55,11.508C34.11,11.508 33.732,11.41 33.416,11.214C33.1,11.018 32.858,10.746 32.69,10.398C32.522,10.05 32.438,9.652 32.438,9.204L32.438,5.64C32.438,5.464 32.494,5.318 32.606,5.202C32.718,5.086 32.862,5.028 33.038,5.028C33.206,5.028 33.348,5.086 33.464,5.202C33.58,5.318 33.638,5.464 33.638,5.64L33.638,8.88C33.638,9.408 33.754,9.794 33.986,10.038C34.218,10.282 34.562,10.404 35.018,10.404C35.322,10.404 35.586,10.34 35.81,10.212C36.034,10.084 36.21,9.906 36.338,9.678C36.466,9.45 36.53,9.184 36.53,8.88L36.53,5.64C36.53,5.464 36.588,5.318 36.704,5.202C36.82,5.086 36.962,5.028 37.13,5.028Z" fill="currentColor"/>
    <path d="M44.582,4.98C44.758,4.98 44.902,5.038 45.014,5.154C45.126,5.27 45.182,5.416 45.182,5.592L45.182,10.776C45.182,10.952 45.126,11.098 45.014,11.214C44.902,11.33 44.758,11.388 44.582,11.388C44.414,11.388 44.272,11.33 44.156,11.214C44.04,11.098 43.982,10.952 43.982,10.776L43.982,9.912L44.234,9.948C44.234,10.092 44.176,10.252 44.06,10.428C43.944,10.604 43.786,10.774 43.586,10.938C43.386,11.102 43.15,11.238 42.878,11.346C42.606,11.454 42.314,11.508 42.002,11.508C41.45,11.508 40.954,11.366 40.514,11.082C40.074,10.798 39.726,10.408 39.47,9.912C39.214,9.416 39.086,8.852 39.086,8.22C39.086,7.572 39.214,7.002 39.47,6.51C39.726,6.018 40.072,5.632 40.508,5.352C40.944,5.072 41.43,4.932 41.966,4.932C42.31,4.932 42.628,4.988 42.92,5.1C43.212,5.212 43.466,5.356 43.682,5.532C43.898,5.708 44.064,5.894 44.18,6.09C44.296,6.286 44.354,6.472 44.354,6.648L43.982,6.684L43.982,5.592C43.982,5.424 44.04,5.28 44.156,5.16C44.272,5.04 44.414,4.98 44.582,4.98ZM42.134,10.404C42.51,10.404 42.842,10.308 43.13,10.116C43.418,9.924 43.642,9.662 43.802,9.33C43.962,8.998 44.042,8.628 44.042,8.22C44.042,7.804 43.962,7.432 43.802,7.104C43.642,6.776 43.418,6.516 43.13,6.324C42.842,6.132 42.51,6.036 42.134,6.036C41.766,6.036 41.44,6.132 41.156,6.324C40.872,6.516 40.648,6.776 40.484,7.104C40.32,7.432 40.238,7.804 40.238,8.22C40.238,8.628 40.32,8.998 40.484,9.33C40.648,9.662 40.872,9.924 41.156,10.116C41.44,10.308 41.766,10.404 42.134,10.404Z" fill="currentColor"/>
    <path d="M52.154,4.98C52.33,4.98 52.474,5.038 52.586,5.154C52.698,5.27 52.754,5.416 52.754,5.592L52.754,10.776C52.754,10.952 52.698,11.098 52.586,11.214C52.474,11.33 52.33,11.388 52.154,11.388C51.986,11.388 51.844,11.33 51.728,11.214C51.612,11.098 51.554,10.952 51.554,10.776L51.554,9.912L51.806,9.948C51.806,10.092 51.748,10.252 51.632,10.428C51.516,10.604 51.358,10.774 51.158,10.938C50.958,11.102 50.722,11.238 50.45,11.346C50.178,11.454 49.886,11.508 49.574,11.508C49.022,11.508 48.526,11.366 48.086,11.082C47.646,10.798 47.298,10.408 47.042,9.912C46.786,9.416 46.658,8.852 46.658,8.22C46.658,7.572 46.786,7.002 47.042,6.51C47.298,6.018 47.644,5.632 48.08,5.352C48.516,5.072 49.002,4.932 49.538,4.932C49.882,4.932 50.2,4.988 50.492,5.1C50.784,5.212 51.038,5.356 51.254,5.532C51.47,5.708 51.636,5.894 51.752,6.09C51.868,6.286 51.926,6.472 51.926,6.648L51.554,6.684L51.554,5.592C51.554,5.424 51.612,5.28 51.728,5.16C51.844,5.04 51.986,4.98 52.154,4.98ZM49.706,10.404C50.082,10.404 50.414,10.308 50.702,10.116C50.99,9.924 51.214,9.662 51.374,9.33C51.534,8.998 51.614,8.628 51.614,8.22C51.614,7.804 51.534,7.432 51.374,7.104C51.214,6.776 50.99,6.516 50.702,6.324C50.414,6.132 50.082,6.036 49.706,6.036C49.338,6.036 49.012,6.132 48.728,6.324C48.444,6.516 48.22,6.776 48.056,7.104C47.892,7.432 47.81,7.804 47.81,8.22C47.81,8.628 47.892,8.998 48.056,9.33C48.22,9.662 48.444,9.924 48.728,10.116C49.012,10.308 49.338,10.404 49.706,10.404Z" fill="currentColor"/>
    <path d="M54.062,10.404C53.99,10.292 53.958,10.162 53.966,10.014C53.974,9.866 54.058,9.74 54.218,9.636C54.33,9.564 54.448,9.534 54.572,9.546C54.696,9.558 54.814,9.62 54.926,9.732C55.15,9.98 55.4,10.176 55.676,10.32C55.952,10.464 56.286,10.536 56.678,10.536C56.838,10.528 57.002,10.502 57.17,10.458C57.338,10.414 57.482,10.334 57.602,10.218C57.722,10.102 57.782,9.932 57.782,9.708C57.782,9.508 57.718,9.348 57.59,9.228C57.462,9.108 57.294,9.01 57.086,8.934C56.878,8.858 56.654,8.788 56.414,8.724C56.158,8.652 55.9,8.572 55.64,8.484C55.38,8.396 55.146,8.282 54.938,8.142C54.73,8.002 54.56,7.82 54.428,7.596C54.296,7.372 54.23,7.096 54.23,6.768C54.23,6.392 54.336,6.068 54.548,5.796C54.76,5.524 55.036,5.312 55.376,5.16C55.716,5.008 56.086,4.932 56.486,4.932C56.718,4.932 56.962,4.962 57.218,5.022C57.474,5.082 57.722,5.176 57.962,5.304C58.202,5.432 58.41,5.6 58.586,5.808C58.666,5.912 58.712,6.036 58.724,6.18C58.736,6.324 58.67,6.452 58.526,6.564C58.43,6.644 58.314,6.68 58.178,6.672C58.042,6.664 57.93,6.62 57.842,6.54C57.69,6.348 57.494,6.198 57.254,6.09C57.014,5.982 56.742,5.928 56.438,5.928C56.286,5.928 56.128,5.95 55.964,5.994C55.8,6.038 55.662,6.116 55.55,6.228C55.438,6.34 55.382,6.504 55.382,6.72C55.382,6.92 55.448,7.08 55.58,7.2C55.712,7.32 55.886,7.42 56.102,7.5C56.318,7.58 56.554,7.652 56.81,7.716C57.058,7.78 57.304,7.856 57.548,7.944C57.792,8.032 58.012,8.146 58.208,8.286C58.404,8.426 58.564,8.606 58.688,8.826C58.812,9.046 58.874,9.324 58.874,9.66C58.874,10.052 58.76,10.386 58.532,10.662C58.304,10.938 58.016,11.148 57.668,11.292C57.32,11.436 56.954,11.508 56.57,11.508C56.114,11.508 55.66,11.426 55.208,11.262C54.756,11.098 54.374,10.812 54.062,10.404Z" fill="currentColor"/>
    <path d="M61.466,10.776C61.466,10.952 61.408,11.098 61.292,11.214C61.176,11.33 61.034,11.388 60.866,11.388C60.698,11.388 60.556,11.33 60.44,11.214C60.324,11.098 60.266,10.952 60.266,10.776L60.266,3.12C60.266,2.944 60.326,2.798 60.446,2.682C60.566,2.566 60.71,2.508 60.878,2.508C61.054,2.508 61.196,2.566 61.304,2.682C61.412,2.798 61.466,2.944 61.466,3.12L61.466,10.776Z" fill="currentColor"/>
  </g>
</svg>
